<svg width="810" height="510" viewBox="0 0 810 510" fill="none" xmlns="http://www.w3.org/2000/svg">
<rect width="810" height="510" fill="#9FEF60"/>
<rect x="60" width="30" height="30" fill="#83DC3E"/>
<rect width="30" height="30" fill="#83DC3E"/>
<rect x="30" y="30" width="30" height="30" fill="#83DC3E"/>
<rect x="90" y="30" width="30" height="30" fill="#83DC3E"/>
<rect x="120" width="30" height="30" fill="#83DC3E"/>
<rect x="60" y="60" width="30" height="30" fill="#83DC3E"/>
<rect y="60" width="30" height="30" fill="#83DC3E"/>
<rect x="30" y="90" width="30" height="30" fill="#83DC3E"/>
<rect x="90" y="90" width="30" height="30" fill="#83DC3E"/>
<rect x="120" y="60" width="30" height="30" fill="#83DC3E"/>
<rect x="60" y="120" width="30" height="30" fill="#83DC3E"/>
<rect y="120" width="30" height="30" fill="#83DC3E"/>
<rect x="30" y="150" width="30" height="30" fill="#83DC3E"/>
<rect x="90" y="150" width="30" height="30" fill="#83DC3E"/>
<rect x="120" y="120" width="30" height="30" fill="#83DC3E"/>
<rect x="60" y="180" width="30" height="30" fill="#83DC3E"/>
<rect y="180" width="30" height="30" fill="#83DC3E"/>
<rect x="30" y="210" width="30" height="30" fill="#83DC3E"/>
<rect x="90" y="210" width="30" height="30" fill="#83DC3E"/>
<rect x="120" y="180" width="30" height="30" fill="#83DC3E"/>
<rect x="60" y="240" width="30" height="30" fill="#83DC3E"/>
<rect y="240" width="30" height="30" fill="#83DC3E"/>
<rect x="30" y="270" width="30" height="30" fill="#83DC3E"/>
<rect x="90" y="270" width="30" height="30" fill="#83DC3E"/>
<rect x="120" y="240" width="30" height="30" fill="#83DC3E"/>
<rect x="60" y="300" width="30" height="30" fill="#83DC3E"/>
<rect y="300" width="30" height="30" fill="#83DC3E"/>
<rect x="30" y="330" width="30" height="30" fill="#83DC3E"/>
<rect x="90" y="330" width="30" height="30" fill="#83DC3E"/>
<rect x="120" y="300" width="30" height="30" fill="#83DC3E"/>
<rect y="360" width="30" height="30" fill="#83DC3E"/>
<rect x="60" y="360" width="30" height="30" fill="#83DC3E"/>
<rect x="30" y="390" width="30" height="30" fill="#83DC3E"/>
<rect y="420" width="30" height="30" fill="#83DC3E"/>
<rect x="60" y="420" width="30" height="30" fill="#83DC3E"/>
<rect x="90" y="390" width="30" height="30" fill="#83DC3E"/>
<rect x="120" y="360" width="30" height="30" fill="#83DC3E"/>
<rect x="120" y="420" width="30" height="30" fill="#83DC3E"/>
<rect x="120" y="480" width="30" height="30" fill="#83DC3E"/>
<rect x="30" y="450" width="30" height="30" fill="#83DC3E"/>
<rect y="480" width="30" height="30" fill="#83DC3E"/>
<rect x="60" y="480" width="30" height="30" fill="#83DC3E"/>
<rect x="90" y="450" width="30" height="30" fill="#83DC3E"/>
<rect x="240" width="30" height="30" fill="#83DC3E"/>
<rect x="180" width="30" height="30" fill="#83DC3E"/>
<rect x="210" y="30" width="30" height="30" fill="#83DC3E"/>
<rect x="270" y="30" width="30" height="30" fill="#83DC3E"/>
<rect x="300" width="30" height="30" fill="#83DC3E"/>
<rect x="240" y="60" width="30" height="30" fill="#83DC3E"/>
<rect x="180" y="60" width="30" height="30" fill="#83DC3E"/>
<rect x="210" y="90" width="30" height="30" fill="#83DC3E"/>
<rect x="270" y="90" width="30" height="30" fill="#83DC3E"/>
<rect x="300" y="60" width="30" height="30" fill="#83DC3E"/>
<rect x="240" y="120" width="30" height="30" fill="#83DC3E"/>
<rect x="180" y="120" width="30" height="30" fill="#83DC3E"/>
<rect x="210" y="150" width="30" height="30" fill="#83DC3E"/>
<rect x="270" y="150" width="30" height="30" fill="#83DC3E"/>
<rect x="300" y="120" width="30" height="30" fill="#83DC3E"/>
<rect x="240" y="180" width="30" height="30" fill="#83DC3E"/>
<rect x="180" y="180" width="30" height="30" fill="#83DC3E"/>
<rect x="210" y="210" width="30" height="30" fill="#83DC3E"/>
<rect x="270" y="210" width="30" height="30" fill="#83DC3E"/>
<rect x="300" y="180" width="30" height="30" fill="#83DC3E"/>
<rect x="240" y="240" width="30" height="30" fill="#83DC3E"/>
<rect x="180" y="240" width="30" height="30" fill="#83DC3E"/>
<rect x="210" y="270" width="30" height="30" fill="#83DC3E"/>
<rect x="270" y="270" width="30" height="30" fill="#83DC3E"/>
<rect x="300" y="240" width="30" height="30" fill="#83DC3E"/>
<rect x="240" y="300" width="30" height="30" fill="#83DC3E"/>
<rect x="180" y="300" width="30" height="30" fill="#83DC3E"/>
<rect x="210" y="330" width="30" height="30" fill="#83DC3E"/>
<rect x="270" y="330" width="30" height="30" fill="#83DC3E"/>
<rect x="300" y="300" width="30" height="30" fill="#83DC3E"/>
<rect x="180" y="360" width="30" height="30" fill="#83DC3E"/>
<rect x="240" y="360" width="30" height="30" fill="#83DC3E"/>
<rect x="210" y="390" width="30" height="30" fill="#83DC3E"/>
<rect x="180" y="420" width="30" height="30" fill="#83DC3E"/>
<rect x="240" y="420" width="30" height="30" fill="#83DC3E"/>
<rect x="270" y="390" width="30" height="30" fill="#83DC3E"/>
<rect x="300" y="360" width="30" height="30" fill="#83DC3E"/>
<rect x="300" y="420" width="30" height="30" fill="#83DC3E"/>
<rect x="300" y="480" width="30" height="30" fill="#83DC3E"/>
<rect x="210" y="450" width="30" height="30" fill="#83DC3E"/>
<rect x="180" y="480" width="30" height="30" fill="#83DC3E"/>
<rect x="240" y="480" width="30" height="30" fill="#83DC3E"/>
<rect x="270" y="450" width="30" height="30" fill="#83DC3E"/>
<rect x="420" width="30" height="30" fill="#83DC3E"/>
<rect x="360" width="30" height="30" fill="#83DC3E"/>
<rect x="390" y="30" width="30" height="30" fill="#83DC3E"/>
<rect x="450" y="30" width="30" height="30" fill="#83DC3E"/>
<rect x="480" width="30" height="30" fill="#83DC3E"/>
<rect x="420" y="60" width="30" height="30" fill="#83DC3E"/>
<rect x="360" y="60" width="30" height="30" fill="#83DC3E"/>
<rect x="390" y="90" width="30" height="30" fill="#83DC3E"/>
<rect x="450" y="90" width="30" height="30" fill="#83DC3E"/>
<rect x="480" y="60" width="30" height="30" fill="#83DC3E"/>
<rect x="420" y="120" width="30" height="30" fill="#83DC3E"/>
<rect x="360" y="120" width="30" height="30" fill="#83DC3E"/>
<rect x="390" y="150" width="30" height="30" fill="#83DC3E"/>
<rect x="450" y="150" width="30" height="30" fill="#83DC3E"/>
<rect x="480" y="120" width="30" height="30" fill="#83DC3E"/>
<rect x="420" y="180" width="30" height="30" fill="#83DC3E"/>
<rect x="360" y="180" width="30" height="30" fill="#83DC3E"/>
<rect x="390" y="210" width="30" height="30" fill="#83DC3E"/>
<rect x="450" y="210" width="30" height="30" fill="#83DC3E"/>
<rect x="480" y="180" width="30" height="30" fill="#83DC3E"/>
<rect x="420" y="240" width="30" height="30" fill="#83DC3E"/>
<rect x="360" y="240" width="30" height="30" fill="#83DC3E"/>
<rect x="390" y="270" width="30" height="30" fill="#83DC3E"/>
<rect x="450" y="270" width="30" height="30" fill="#83DC3E"/>
<rect x="480" y="240" width="30" height="30" fill="#83DC3E"/>
<rect x="420" y="300" width="30" height="30" fill="#83DC3E"/>
<rect x="360" y="300" width="30" height="30" fill="#83DC3E"/>
<rect x="390" y="330" width="30" height="30" fill="#83DC3E"/>
<rect x="450" y="330" width="30" height="30" fill="#83DC3E"/>
<rect x="480" y="300" width="30" height="30" fill="#83DC3E"/>
<rect x="360" y="360" width="30" height="30" fill="#83DC3E"/>
<rect x="420" y="360" width="30" height="30" fill="#83DC3E"/>
<rect x="390" y="390" width="30" height="30" fill="#83DC3E"/>
<rect x="360" y="420" width="30" height="30" fill="#83DC3E"/>
<rect x="420" y="420" width="30" height="30" fill="#83DC3E"/>
<rect x="450" y="390" width="30" height="30" fill="#83DC3E"/>
<rect x="480" y="360" width="30" height="30" fill="#83DC3E"/>
<rect x="480" y="420" width="30" height="30" fill="#83DC3E"/>
<rect x="480" y="480" width="30" height="30" fill="#83DC3E"/>
<rect x="390" y="450" width="30" height="30" fill="#83DC3E"/>
<rect x="360" y="480" width="30" height="30" fill="#83DC3E"/>
<rect x="420" y="480" width="30" height="30" fill="#83DC3E"/>
<rect x="450" y="450" width="30" height="30" fill="#83DC3E"/>
<rect x="600" width="30" height="30" fill="#83DC3E"/>
<rect x="540" width="30" height="30" fill="#83DC3E"/>
<rect x="570" y="30" width="30" height="30" fill="#83DC3E"/>
<rect x="630" y="30" width="30" height="30" fill="#83DC3E"/>
<rect x="660" width="30" height="30" fill="#83DC3E"/>
<rect x="720" width="30" height="30" fill="#83DC3E"/>
<rect x="600" y="60" width="30" height="30" fill="#83DC3E"/>
<rect x="540" y="60" width="30" height="30" fill="#83DC3E"/>
<rect x="570" y="90" width="30" height="30" fill="#83DC3E"/>
<rect x="630" y="90" width="30" height="30" fill="#83DC3E"/>
<rect x="660" y="60" width="30" height="30" fill="#83DC3E"/>
<rect x="600" y="120" width="30" height="30" fill="#83DC3E"/>
<rect x="540" y="120" width="30" height="30" fill="#83DC3E"/>
<rect x="570" y="150" width="30" height="30" fill="#83DC3E"/>
<rect x="630" y="150" width="30" height="30" fill="#83DC3E"/>
<rect x="660" y="120" width="30" height="30" fill="#83DC3E"/>
<rect x="600" y="180" width="30" height="30" fill="#83DC3E"/>
<rect x="540" y="180" width="30" height="30" fill="#83DC3E"/>
<rect x="570" y="210" width="30" height="30" fill="#83DC3E"/>
<rect x="630" y="210" width="30" height="30" fill="#83DC3E"/>
<rect x="660" y="180" width="30" height="30" fill="#83DC3E"/>
<rect x="600" y="240" width="30" height="30" fill="#83DC3E"/>
<rect x="540" y="240" width="30" height="30" fill="#83DC3E"/>
<rect x="570" y="270" width="30" height="30" fill="#83DC3E"/>
<rect x="630" y="270" width="30" height="30" fill="#83DC3E"/>
<rect x="660" y="240" width="30" height="30" fill="#83DC3E"/>
<rect x="600" y="300" width="30" height="30" fill="#83DC3E"/>
<rect x="540" y="300" width="30" height="30" fill="#83DC3E"/>
<rect x="570" y="330" width="30" height="30" fill="#83DC3E"/>
<rect x="630" y="330" width="30" height="30" fill="#83DC3E"/>
<rect x="660" y="300" width="30" height="30" fill="#83DC3E"/>
<rect x="540" y="360" width="30" height="30" fill="#83DC3E"/>
<rect x="600" y="360" width="30" height="30" fill="#83DC3E"/>
<rect x="570" y="390" width="30" height="30" fill="#83DC3E"/>
<rect x="540" y="420" width="30" height="30" fill="#83DC3E"/>
<rect x="600" y="420" width="30" height="30" fill="#83DC3E"/>
<rect x="630" y="390" width="30" height="30" fill="#83DC3E"/>
<rect x="660" y="360" width="30" height="30" fill="#83DC3E"/>
<rect x="660" y="420" width="30" height="30" fill="#83DC3E"/>
<rect x="660" y="480" width="30" height="30" fill="#83DC3E"/>
<rect x="570" y="450" width="30" height="30" fill="#83DC3E"/>
<rect x="540" y="480" width="30" height="30" fill="#83DC3E"/>
<rect x="510" y="30" width="30" height="30" fill="#83DC3E"/>
<rect x="510" y="90" width="30" height="30" fill="#83DC3E"/>
<rect x="510" y="150" width="30" height="30" fill="#83DC3E"/>
<rect x="510" y="210" width="30" height="30" fill="#83DC3E"/>
<rect x="510" y="270" width="30" height="30" fill="#83DC3E"/>
<rect x="510" y="330" width="30" height="30" fill="#83DC3E"/>
<rect x="510" y="390" width="30" height="30" fill="#83DC3E"/>
<rect x="510" y="450" width="30" height="30" fill="#83DC3E"/>
<rect x="330" y="30" width="30" height="30" fill="#83DC3E"/>
<rect x="330" y="90" width="30" height="30" fill="#83DC3E"/>
<rect x="330" y="150" width="30" height="30" fill="#83DC3E"/>
<rect x="330" y="210" width="30" height="30" fill="#83DC3E"/>
<rect x="330" y="270" width="30" height="30" fill="#83DC3E"/>
<rect x="330" y="330" width="30" height="30" fill="#83DC3E"/>
<rect x="330" y="390" width="30" height="30" fill="#83DC3E"/>
<rect x="330" y="450" width="30" height="30" fill="#83DC3E"/>
<rect x="150" y="30" width="30" height="30" fill="#83DC3E"/>
<rect x="150" y="90" width="30" height="30" fill="#83DC3E"/>
<rect x="150" y="150" width="30" height="30" fill="#83DC3E"/>
<rect x="150" y="210" width="30" height="30" fill="#83DC3E"/>
<rect x="150" y="270" width="30" height="30" fill="#83DC3E"/>
<rect x="150" y="330" width="30" height="30" fill="#83DC3E"/>
<rect x="150" y="390" width="30" height="30" fill="#83DC3E"/>
<rect x="150" y="450" width="30" height="30" fill="#83DC3E"/>
<rect x="690" y="30" width="30" height="30" fill="#83DC3E"/>
<rect x="690" y="90" width="30" height="30" fill="#83DC3E"/>
<rect x="690" y="150" width="30" height="30" fill="#83DC3E"/>
<rect x="690" y="210" width="30" height="30" fill="#83DC3E"/>
<rect x="690" y="270" width="30" height="30" fill="#83DC3E"/>
<rect x="690" y="330" width="30" height="30" fill="#83DC3E"/>
<rect x="690" y="390" width="30" height="30" fill="#83DC3E"/>
<rect x="690" y="450" width="30" height="30" fill="#83DC3E"/>
<rect x="720" y="60" width="30" height="30" fill="#83DC3E"/>
<rect x="720" y="120" width="30" height="30" fill="#83DC3E"/>
<rect x="720" y="180" width="30" height="30" fill="#83DC3E"/>
<rect x="720" y="240" width="30" height="30" fill="#83DC3E"/>
<rect x="720" y="300" width="30" height="30" fill="#83DC3E"/>
<rect x="720" y="360" width="30" height="30" fill="#83DC3E"/>
<rect x="720" y="420" width="30" height="30" fill="#83DC3E"/>
<rect x="720" y="480" width="30" height="30" fill="#83DC3E"/>
<rect x="750" y="30" width="30" height="30" fill="#83DC3E"/>
<rect x="750" y="90" width="30" height="30" fill="#83DC3E"/>
<rect x="750" y="150" width="30" height="30" fill="#83DC3E"/>
<rect x="750" y="210" width="30" height="30" fill="#83DC3E"/>
<rect x="750" y="270" width="30" height="30" fill="#83DC3E"/>
<rect x="750" y="330" width="30" height="30" fill="#83DC3E"/>
<rect x="750" y="390" width="30" height="30" fill="#83DC3E"/>
<path d="M750 450H780V480H750V450Z" fill="#83DC3E"/>
<path d="M780 480H810V510H780V480Z" fill="#83DC3E"/>
<rect x="780" width="30" height="30" fill="#83DC3E"/>
<rect x="780" y="60" width="30" height="30" fill="#83DC3E"/>
<rect x="780" y="120" width="30" height="30" fill="#83DC3E"/>
<rect x="780" y="180" width="30" height="30" fill="#83DC3E"/>
<rect x="780" y="240" width="30" height="30" fill="#83DC3E"/>
<rect x="780" y="300" width="30" height="30" fill="#83DC3E"/>
<rect x="780" y="360" width="30" height="30" fill="#83DC3E"/>
<rect x="780" y="420" width="30" height="30" fill="#83DC3E"/>
<rect x="600" y="480" width="30" height="30" fill="#83DC3E"/>
<rect x="630" y="450" width="30" height="30" fill="#83DC3E"/>
</svg>
