<svg width="216" height="216" viewBox="0 0 216 216" fill="none" xmlns="http://www.w3.org/2000/svg">
<g filter="url(#filter0_d_2_20)">
<rect x="12" y="12" width="192" height="192" rx="96" fill="#9FEF60"/>
<rect x="14" y="14" width="188" height="188" rx="94" stroke="black" stroke-opacity="0.34" stroke-width="4"/>
</g>
<path d="M99 48C99 43.0294 103.029 39 108 39V39C112.971 39 117 43.0294 117 48V93H99V48Z" fill="#4BAD00"/>
<ellipse cx="103.8" cy="44.6999" rx="1.2" ry="2.1" fill="#333333"/>
<ellipse cx="111.6" cy="44.6999" rx="1.2" ry="2.1" fill="#333333"/>
<path d="M99 147H108C112.971 147 117 151.029 117 156V156C117 160.971 112.971 165 108 165H99V147Z" fill="#4BAD00"/>
<rect x="99" y="75" width="54" height="18" fill="#4BAD00"/>
<rect x="135" y="75" width="18" height="18" fill="#4BAD00"/>
<rect x="135" y="75" width="18" height="54" fill="#4BAD00"/>
<rect x="135" y="111" width="18" height="18" fill="#4BAD00"/>
<rect x="63" y="111" width="18" height="18" fill="#4BAD00"/>
<rect x="63" y="111" width="90" height="18" fill="#4BAD00"/>
<rect x="99" y="111" width="18" height="18" fill="#4BAD00"/>
<rect x="81" y="111" width="18" height="18" fill="#4BAD00"/>
<rect x="63" y="111" width="18" height="54" fill="#4BAD00"/>
<rect x="63" y="147" width="18" height="18" fill="#4BAD00"/>
<rect x="63" y="147" width="43" height="18" fill="#4BAD00"/>
<defs>
<filter id="filter0_d_2_20" x="0" y="0" width="216" height="216" filterUnits="userSpaceOnUse" color-interpolation-filters="sRGB">
<feFlood flood-opacity="0" result="BackgroundImageFix"/>
<feColorMatrix in="SourceAlpha" type="matrix" values="0 0 0 0 0 0 0 0 0 0 0 0 0 0 0 0 0 0 127 0" result="hardAlpha"/>
<feMorphology radius="4" operator="dilate" in="SourceAlpha" result="effect1_dropShadow_2_20"/>
<feOffset/>
<feGaussianBlur stdDeviation="4"/>
<feComposite in2="hardAlpha" operator="out"/>
<feColorMatrix type="matrix" values="0 0 0 0 0 0 0 0 0 0 0 0 0 0 0 0 0 0 0.25 0"/>
<feBlend mode="normal" in2="BackgroundImageFix" result="effect1_dropShadow_2_20"/>
<feBlend mode="normal" in="SourceGraphic" in2="effect1_dropShadow_2_20" result="shape"/>
</filter>
</defs>
</svg>
