<svg width="256" height="256" viewBox="0 0 256 256" fill="none" xmlns="http://www.w3.org/2000/svg">
<path d="M126.133 234.667C121.867 234.667 117.778 233.867 113.867 232.267C109.956 230.667 106.489 228.356 103.467 225.333L49.0667 170.667L57.0667 162.4C59.9111 159.556 63.2445 157.644 67.0667 156.667C70.8889 155.689 74.6667 155.733 78.4 156.8L96 161.867V74.6666C96 71.6444 97.0223 69.1111 99.0667 67.0666C101.111 65.0222 103.644 64 106.667 64C109.689 64 112.222 65.0222 114.267 67.0666C116.311 69.1111 117.333 71.6444 117.333 74.6666V190.133L91.4667 182.933L118.667 210.133C119.556 211.022 120.667 211.778 122 212.4C123.333 213.022 124.711 213.333 126.133 213.333H170.667C176.533 213.333 181.556 211.244 185.733 207.067C189.911 202.889 192 197.867 192 192V149.333C192 146.311 193.022 143.778 195.067 141.733C197.111 139.689 199.644 138.667 202.667 138.667C205.689 138.667 208.222 139.689 210.267 141.733C212.311 143.778 213.333 146.311 213.333 149.333V192C213.333 203.733 209.156 213.778 200.8 222.133C192.444 230.489 182.4 234.667 170.667 234.667H126.133ZM128 160V117.333C128 114.311 129.022 111.778 131.067 109.733C133.111 107.689 135.644 106.667 138.667 106.667C141.689 106.667 144.222 107.689 146.267 109.733C148.311 111.778 149.333 114.311 149.333 117.333V160H128ZM160 160V128C160 124.978 161.022 122.444 163.067 120.4C165.111 118.356 167.644 117.333 170.667 117.333C173.689 117.333 176.222 118.356 178.267 120.4C180.311 122.444 181.333 124.978 181.333 128V160H160ZM234.667 74.6666H181.333V58.6666H212.267C200.533 48.3555 187.467 40.4444 173.067 34.9333C158.667 29.4222 143.644 26.6666 128 26.6666C112.356 26.6666 97.3334 29.4222 82.9334 34.9333C68.5334 40.4444 55.4667 48.3555 43.7334 58.6666H74.6667V74.6666H21.3334V21.3333H37.3334V42.9333C50.1334 32.4444 64.2667 24.4444 79.7334 18.9333C95.2 13.4222 111.289 10.6666 128 10.6666C144.711 10.6666 160.8 13.4222 176.267 18.9333C191.733 24.4444 205.867 32.4444 218.667 42.9333V21.3333H234.667V74.6666Z" fill="#333333"/>
</svg>
