<svg width="338" height="97" viewBox="0 0 338 97" fill="none" xmlns="http://www.w3.org/2000/svg">
<rect x="56.418" y="2" width="39.3121" height="39.3121" rx="8" fill="#9FEF60" stroke="#4BAD00" stroke-width="4"/>
<g filter="url(#filter0_d_29_481)">
<path d="M68.067 30L62.571 13.2H66.603L71.379 28.08H69.363L74.355 13.2H77.955L82.755 28.08H80.811L85.707 13.2H89.427L83.931 30H79.755L75.507 16.944H76.611L72.243 30H68.067Z" fill="white"/>
</g>
<rect x="2.41797" y="55" width="39.3121" height="39.3121" rx="8" fill="#9FEF60" stroke="#4BAD00" stroke-width="4"/>
<g filter="url(#filter1_d_29_481)">
<path d="M12.5965 83L20.0845 66.2H23.9245L31.4365 83H27.3565L21.2125 68.168H22.7485L16.5805 83H12.5965ZM16.3405 79.4L17.3725 76.448H26.0125L27.0685 79.4H16.3405Z" fill="white"/>
</g>
<rect x="56.418" y="55" width="39.3121" height="39.3121" rx="8" fill="#9FEF60" stroke="#4BAD00" stroke-width="4"/>
<g filter="url(#filter2_d_29_481)">
<path d="M75.8597 83.288C74.5157 83.288 73.2277 83.112 71.9957 82.76C70.7637 82.392 69.7717 81.92 69.0197 81.344L70.3397 78.416C71.0597 78.928 71.9077 79.352 72.8837 79.688C73.8757 80.008 74.8757 80.168 75.8837 80.168C76.6517 80.168 77.2677 80.096 77.7317 79.952C78.2117 79.792 78.5637 79.576 78.7877 79.304C79.0117 79.032 79.1237 78.72 79.1237 78.368C79.1237 77.92 78.9477 77.568 78.5957 77.312C78.2437 77.04 77.7797 76.824 77.2037 76.664C76.6277 76.488 75.9877 76.328 75.2837 76.184C74.5957 76.024 73.8997 75.832 73.1957 75.608C72.5077 75.384 71.8757 75.096 71.2997 74.744C70.7237 74.392 70.2517 73.928 69.8837 73.352C69.5317 72.776 69.3557 72.04 69.3557 71.144C69.3557 70.184 69.6117 69.312 70.1237 68.528C70.6517 67.728 71.4357 67.096 72.4757 66.632C73.5317 66.152 74.8517 65.912 76.4357 65.912C77.4917 65.912 78.5317 66.04 79.5557 66.296C80.5797 66.536 81.4837 66.904 82.2677 67.4L81.0677 70.352C80.2837 69.904 79.4997 69.576 78.7157 69.368C77.9317 69.144 77.1637 69.032 76.4117 69.032C75.6597 69.032 75.0437 69.12 74.5637 69.296C74.0837 69.472 73.7397 69.704 73.5317 69.992C73.3237 70.264 73.2197 70.584 73.2197 70.952C73.2197 71.384 73.3957 71.736 73.7477 72.008C74.0997 72.264 74.5637 72.472 75.1397 72.632C75.7157 72.792 76.3477 72.952 77.0357 73.112C77.7397 73.272 78.4357 73.456 79.1237 73.664C79.8277 73.872 80.4677 74.152 81.0437 74.504C81.6197 74.856 82.0837 75.32 82.4357 75.896C82.8037 76.472 82.9877 77.2 82.9877 78.08C82.9877 79.024 82.7237 79.888 82.1957 80.672C81.6677 81.456 80.8757 82.088 79.8197 82.568C78.7797 83.048 77.4597 83.288 75.8597 83.288Z" fill="white"/>
</g>
<rect x="109.418" y="55" width="39.3121" height="39.3121" rx="8" fill="#9FEF60" stroke="#4BAD00" stroke-width="4"/>
<g filter="url(#filter3_d_29_481)">
<path d="M121.078 83V66.2H128.71C130.534 66.2 132.142 66.552 133.534 67.256C134.926 67.944 136.014 68.912 136.798 70.16C137.582 71.408 137.974 72.888 137.974 74.6C137.974 76.296 137.582 77.776 136.798 79.04C136.014 80.288 134.926 81.264 133.534 81.968C132.142 82.656 130.534 83 128.71 83H121.078ZM124.966 79.808H128.518C129.638 79.808 130.606 79.6 131.422 79.184C132.254 78.752 132.894 78.144 133.342 77.36C133.806 76.576 134.038 75.656 134.038 74.6C134.038 73.528 133.806 72.608 133.342 71.84C132.894 71.056 132.254 70.456 131.422 70.04C130.606 69.608 129.638 69.392 128.518 69.392H124.966V79.808Z" fill="white"/>
</g>
<rect x="243.418" y="2" width="39.3121" height="39.3121" rx="8" fill="#9FEF60" stroke="#4BAD00" stroke-width="4"/>
<g filter="url(#filter4_d_29_481)">
<path d="M255.838 23.032V19.192L262.974 14.424L270.174 19.192V23.032L262.974 18.68L255.838 23.032ZM261.054 29.784V18.008H264.926V29.784H261.054Z" fill="white"/>
</g>
<rect x="189.418" y="55" width="39.3121" height="39.3121" rx="8" fill="#9FEF60" stroke="#4BAD00" stroke-width="4"/>
<g filter="url(#filter5_d_29_481)">
<path d="M206.51 82.4L201.774 75.168L206.51 67.936H210.83L206.478 75.168L210.83 82.4H206.51ZM205.55 76.928V73.44H217.006V76.928H205.55Z" fill="white"/>
</g>
<rect x="243.418" y="55" width="39.3121" height="39.3121" rx="8" fill="#9FEF60" stroke="#4BAD00" stroke-width="4"/>
<g filter="url(#filter6_d_29_481)">
<path d="M270.366 74.272V78.144L263.198 82.944L255.998 78.144V74.272L263.198 78.656L270.366 74.272ZM265.118 67.584V79.36H261.246V67.584H265.118Z" fill="white"/>
</g>
<rect x="296.418" y="55" width="39.3121" height="39.3121" rx="8" fill="#9FEF60" stroke="#4BAD00" stroke-width="4"/>
<g filter="url(#filter7_d_29_481)">
<path d="M318.502 67.968L323.238 75.168L318.502 82.432H314.182L318.534 75.168L314.182 67.968H318.502ZM319.462 73.44V76.928H308.006V73.44H319.462Z" fill="white"/>
</g>
<defs>
<filter id="filter0_d_29_481" x="58.5708" y="9.19995" width="34.856" height="24.8" filterUnits="userSpaceOnUse" color-interpolation-filters="sRGB">
<feFlood flood-opacity="0" result="BackgroundImageFix"/>
<feColorMatrix in="SourceAlpha" type="matrix" values="0 0 0 0 0 0 0 0 0 0 0 0 0 0 0 0 0 0 127 0" result="hardAlpha"/>
<feOffset/>
<feGaussianBlur stdDeviation="2"/>
<feComposite in2="hardAlpha" operator="out"/>
<feColorMatrix type="matrix" values="0 0 0 0 0 0 0 0 0 0 0 0 0 0 0 0 0 0 0.25 0"/>
<feBlend mode="normal" in2="BackgroundImageFix" result="effect1_dropShadow_29_481"/>
<feBlend mode="normal" in="SourceGraphic" in2="effect1_dropShadow_29_481" result="shape"/>
</filter>
<filter id="filter1_d_29_481" x="8.59668" y="62.2" width="26.8398" height="24.8" filterUnits="userSpaceOnUse" color-interpolation-filters="sRGB">
<feFlood flood-opacity="0" result="BackgroundImageFix"/>
<feColorMatrix in="SourceAlpha" type="matrix" values="0 0 0 0 0 0 0 0 0 0 0 0 0 0 0 0 0 0 127 0" result="hardAlpha"/>
<feOffset/>
<feGaussianBlur stdDeviation="2"/>
<feComposite in2="hardAlpha" operator="out"/>
<feColorMatrix type="matrix" values="0 0 0 0 0 0 0 0 0 0 0 0 0 0 0 0 0 0 0.25 0"/>
<feBlend mode="normal" in2="BackgroundImageFix" result="effect1_dropShadow_29_481"/>
<feBlend mode="normal" in="SourceGraphic" in2="effect1_dropShadow_29_481" result="shape"/>
</filter>
<filter id="filter2_d_29_481" x="65.0195" y="61.9121" width="21.9683" height="25.376" filterUnits="userSpaceOnUse" color-interpolation-filters="sRGB">
<feFlood flood-opacity="0" result="BackgroundImageFix"/>
<feColorMatrix in="SourceAlpha" type="matrix" values="0 0 0 0 0 0 0 0 0 0 0 0 0 0 0 0 0 0 127 0" result="hardAlpha"/>
<feOffset/>
<feGaussianBlur stdDeviation="2"/>
<feComposite in2="hardAlpha" operator="out"/>
<feColorMatrix type="matrix" values="0 0 0 0 0 0 0 0 0 0 0 0 0 0 0 0 0 0 0.25 0"/>
<feBlend mode="normal" in2="BackgroundImageFix" result="effect1_dropShadow_29_481"/>
<feBlend mode="normal" in="SourceGraphic" in2="effect1_dropShadow_29_481" result="shape"/>
</filter>
<filter id="filter3_d_29_481" x="117.078" y="62.2" width="24.896" height="24.8" filterUnits="userSpaceOnUse" color-interpolation-filters="sRGB">
<feFlood flood-opacity="0" result="BackgroundImageFix"/>
<feColorMatrix in="SourceAlpha" type="matrix" values="0 0 0 0 0 0 0 0 0 0 0 0 0 0 0 0 0 0 127 0" result="hardAlpha"/>
<feOffset/>
<feGaussianBlur stdDeviation="2"/>
<feComposite in2="hardAlpha" operator="out"/>
<feColorMatrix type="matrix" values="0 0 0 0 0 0 0 0 0 0 0 0 0 0 0 0 0 0 0.25 0"/>
<feBlend mode="normal" in2="BackgroundImageFix" result="effect1_dropShadow_29_481"/>
<feBlend mode="normal" in="SourceGraphic" in2="effect1_dropShadow_29_481" result="shape"/>
</filter>
<filter id="filter4_d_29_481" x="251.838" y="10.4241" width="22.3359" height="23.3599" filterUnits="userSpaceOnUse" color-interpolation-filters="sRGB">
<feFlood flood-opacity="0" result="BackgroundImageFix"/>
<feColorMatrix in="SourceAlpha" type="matrix" values="0 0 0 0 0 0 0 0 0 0 0 0 0 0 0 0 0 0 127 0" result="hardAlpha"/>
<feOffset/>
<feGaussianBlur stdDeviation="2"/>
<feComposite in2="hardAlpha" operator="out"/>
<feColorMatrix type="matrix" values="0 0 0 0 0 0 0 0 0 0 0 0 0 0 0 0 0 0 0.25 0"/>
<feBlend mode="normal" in2="BackgroundImageFix" result="effect1_dropShadow_29_481"/>
<feBlend mode="normal" in="SourceGraphic" in2="effect1_dropShadow_29_481" result="shape"/>
</filter>
<filter id="filter5_d_29_481" x="197.774" y="63.936" width="23.2319" height="22.4639" filterUnits="userSpaceOnUse" color-interpolation-filters="sRGB">
<feFlood flood-opacity="0" result="BackgroundImageFix"/>
<feColorMatrix in="SourceAlpha" type="matrix" values="0 0 0 0 0 0 0 0 0 0 0 0 0 0 0 0 0 0 127 0" result="hardAlpha"/>
<feOffset/>
<feGaussianBlur stdDeviation="2"/>
<feComposite in2="hardAlpha" operator="out"/>
<feColorMatrix type="matrix" values="0 0 0 0 0 0 0 0 0 0 0 0 0 0 0 0 0 0 0.25 0"/>
<feBlend mode="normal" in2="BackgroundImageFix" result="effect1_dropShadow_29_481"/>
<feBlend mode="normal" in="SourceGraphic" in2="effect1_dropShadow_29_481" result="shape"/>
</filter>
<filter id="filter6_d_29_481" x="251.998" y="63.584" width="22.3682" height="23.3601" filterUnits="userSpaceOnUse" color-interpolation-filters="sRGB">
<feFlood flood-opacity="0" result="BackgroundImageFix"/>
<feColorMatrix in="SourceAlpha" type="matrix" values="0 0 0 0 0 0 0 0 0 0 0 0 0 0 0 0 0 0 127 0" result="hardAlpha"/>
<feOffset/>
<feGaussianBlur stdDeviation="2"/>
<feComposite in2="hardAlpha" operator="out"/>
<feColorMatrix type="matrix" values="0 0 0 0 0 0 0 0 0 0 0 0 0 0 0 0 0 0 0.25 0"/>
<feBlend mode="normal" in2="BackgroundImageFix" result="effect1_dropShadow_29_481"/>
<feBlend mode="normal" in="SourceGraphic" in2="effect1_dropShadow_29_481" result="shape"/>
</filter>
<filter id="filter7_d_29_481" x="304.006" y="63.968" width="23.2319" height="22.4639" filterUnits="userSpaceOnUse" color-interpolation-filters="sRGB">
<feFlood flood-opacity="0" result="BackgroundImageFix"/>
<feColorMatrix in="SourceAlpha" type="matrix" values="0 0 0 0 0 0 0 0 0 0 0 0 0 0 0 0 0 0 127 0" result="hardAlpha"/>
<feOffset/>
<feGaussianBlur stdDeviation="2"/>
<feComposite in2="hardAlpha" operator="out"/>
<feColorMatrix type="matrix" values="0 0 0 0 0 0 0 0 0 0 0 0 0 0 0 0 0 0 0.25 0"/>
<feBlend mode="normal" in2="BackgroundImageFix" result="effect1_dropShadow_29_481"/>
<feBlend mode="normal" in="SourceGraphic" in2="effect1_dropShadow_29_481" result="shape"/>
</filter>
</defs>
</svg>
